<?xml version="1.0" encoding="UTF-8"?>
<svg width="396px" height="116px" viewBox="0 0 396 116" version="1.1" xmlns="http://www.w3.org/2000/svg" xmlns:xlink="http://www.w3.org/1999/xlink">
    <!-- Generator: sketchtool 63.1 (101010) - https://sketch.com -->
    <title>1FC07E3C-FA9A-4112-8C6A-9CD55A579F8F</title>
    <desc>Created with sketchtool.</desc>
    <g id="Page-1" stroke="none" stroke-width="1" fill="none" fill-rule="evenodd">
        <g id="03---Earnings-&amp;-SEC-Filings" transform="translate(-1044.000000, -268.000000)" fill="#FFFFFF" fill-rule="nonzero">
            <g id="Style-/-Graphics-/-Ribbon-/-American-Express" transform="translate(0.000000, 122.000000)">
                <g transform="translate(1044.000000, 146.000000)" id="American-Express-Ribbon">
                    <path d="M280.002333,0 C362.132556,0 377.231556,37.8721708 448.893667,37.8721708 C479.147667,37.8721708 505.812222,27.568438 529.233444,5.57904883 L560,80.3982177 C525.819778,104.09089 488.334778,115.292561 448.893667,115.294118 C362.336333,115.294118 337.731333,77.4219468 279.998444,77.4219468 C222.256222,77.4219468 197.667556,115.294118 111.107889,115.294118 C71.5874444,115.292561 34.1148889,104.046537 0,80.3982177 L30.7665556,5.57904883 C54.1908889,27.5723285 80.857,37.8721708 111.107889,37.8721708 C182.768444,37.8721708 197.876778,0 280.002333,0 Z M280.002333,4.59162722 C198.930667,4.59162722 184.117111,42.463798 111.107889,42.463798 C81.4558889,42.463798 53.6767778,32.180296 32.4986667,13.4364038 L5.65288889,78.7182781 C36.5221111,99.6471033 72.9431111,110.70249 111.107889,110.70249 C196.639333,110.70249 220.984556,72.8310977 279.998444,72.8310977 C339.017778,72.8310977 363.355222,110.70249 448.893667,110.70249 C487.057667,110.70249 523.478667,99.6471033 554.346333,78.7182781 L527.500556,13.4364038 C506.323222,32.180296 478.544111,42.463798 448.893667,42.463798 C375.896111,42.463798 361.063111,4.59162722 280.002333,4.59162722 Z M280.002333,11.6529756 C359.156778,11.6529756 374.195111,49.5243683 448.893667,49.5243683 C476.025667,49.5235902 498.61,41.8366414 519.598333,28.4375868 L541.950111,78.2630838 C512.569556,95.3340395 481.727556,103.639586 448.893667,103.641142 C363.038667,103.641142 342.770556,65.7697493 279.998444,65.7697493 C217.21,65.7697493 196.978444,103.641142 111.107889,103.641142 C78.2545556,103.639586 47.4148889,95.323924 18.0506667,78.2630838 L40.4016667,28.4375868 C61.4631111,41.883328 84.0521111,49.5235902 111.107889,49.5243683 C185.828222,49.5243683 200.835444,11.6529756 280.002333,11.6529756 Z M280.002333,16.2446029 C202.158444,16.2446029 186.851778,54.1167737 111.107889,54.1167737 C86.4982222,54.1152174 62.8117778,47.562753 42.4238889,35.143339 L23.9345556,76.3598267 C50.1946667,91.207722 80.29,99.0479586 111.107889,99.0495148 C196.294778,99.0495148 215.655222,61.177344 279.998444,61.177344 C344.330778,61.177344 363.716889,99.0495148 448.893667,99.0495148 C479.710778,99.0479586 509.806111,91.207722 536.064667,76.3598267 L517.575333,35.143339 C497.187444,47.562753 473.501,54.1152174 448.893667,54.1167737 C373.128778,54.1167737 357.866444,16.2446029 280.002333,16.2446029 Z M79.2182222,59.2849804 C81.9062222,59.8957968 84.6128889,60.4303584 87.3397778,60.8855527 L93.5285293,76.7697366 C94.9766744,80.509501 96.2173866,83.7454977 96.6723333,85.0201912 L105.610556,62.7288954 L107.8099,62.8161184 C108.909609,62.8576881 110.009822,62.8907422 111.112556,62.8907422 C112.066111,62.8907422 112.969889,62.8580616 113.905556,62.8479462 L113.905556,90.2335283 L111.820321,90.2711694 C111.586951,90.2743304 111.351528,90.2763243 111.112556,90.2763243 C110.477889,90.2763243 109.844778,90.2265253 109.209333,90.2195223 L109.257123,73.6224646 C109.269674,70.3182924 109.283497,67.5285983 109.297222,66.3509975 L109.177952,66.6696733 C107.625308,70.7316176 100.538667,86.6025643 99.1231111,89.8055678 C97.3124444,89.6779577 95.5056667,89.5184452 93.7012222,89.3348112 L87.9870555,75.5169458 C86.0159666,70.7265257 84.1869123,66.2328271 83.6181111,64.6726142 L83.6636113,73.3707369 C83.6828077,78.8154873 83.6981061,85.1653726 83.7044444,88.017471 C82.1372222,87.763029 80.5785556,87.4797969 79.0198889,87.1825589 L79.2182222,59.2849804 Z M428.747667,89.4647556 L428.747667,61.9562321 C435.839444,62.6331878 442.743,62.952991 451.083111,62.8269372 L451.163222,67.5080471 L451.163222,67.5080471 C445.58238,67.6186206 440.476219,67.5741584 434.491678,67.1887499 L433.485889,67.1213264 L433.485889,73.6979123 C438.058289,74.0711717 442.622499,74.2723676 447.142798,74.3088742 L448.647889,74.3149535 L448.647889,78.7711896 C443.930313,78.7711896 439.338082,78.5969187 434.83438,78.2624074 L433.485889,78.1572608 L433.485889,85.1742569 C439.620222,85.6753598 445.842444,85.8761122 451.972111,85.7601738 L451.905222,90.1876198 L451.905222,90.1876198 C444.492517,90.3190936 438.049221,90.1901586 429.654681,89.5367793 L428.747667,89.4647556 L428.747667,61.9562321 L428.747667,89.4647556 Z M145.214222,60.0895462 L145.291222,64.862473 L145.291222,64.862473 C139.781444,65.7790218 134.260556,66.4530001 128.745332,66.8838088 L127.241333,66.9952726 L127.241333,73.8605373 C131.885833,73.5355985 136.535373,73.0392266 141.17918,72.3697197 L142.726889,72.140136 L142.726889,76.7270946 C138.084489,77.4343966 133.435159,77.9696351 128.789672,78.3328102 L127.241333,78.4474958 L127.241333,85.1267922 C133.532778,84.8272199 139.833556,84.2101786 146.119556,83.2764466 L146.046444,87.7840379 L146.046444,87.7840379 C139.154386,88.8260288 131.704422,89.5704373 123.592408,89.9566577 L122.482111,90.0070983 L122.482111,62.577942 C130.707889,62.1546502 138.241444,61.2948386 145.214222,60.0895462 Z M469.445667,60.3416538 C474.594556,59.7783022 479.802556,61.5064845 481.049333,66.2218312 L480.005355,66.4592088 C478.393715,66.8193497 476.868366,67.1325861 475.832,67.337641 C475.212111,64.6912888 472.135222,64.1613959 469.475222,64.4352906 C465.381,64.8508014 462.839222,66.6622415 462.839222,69.1615309 C462.839222,71.7340899 465.67959,72.2358338 469.228009,72.541933 L471.789085,72.7470546 C476.939225,73.180341 482.275112,74.0541138 482.275112,80.2573797 C482.276667,85.2691864 477.235111,89.0562478 469.430111,89.9020534 C463.679469,90.5118712 458.86515,88.3340872 457.358101,84.2165686 L457.284333,84.0055357 L462.84,83.3402516 C464.205,85.3493317 466.994111,85.8379848 469.400556,85.6029956 C474.201,85.1143425 476.714778,82.812693 476.716333,80.7911632 C476.714167,77.9277739 474.042873,77.3616195 469.740547,77.0368051 L467.512438,76.8842959 C463.827974,76.6108509 457.414644,75.7242889 457.418111,69.5902695 C457.418111,64.7613187 462.137667,61.1314355 469.445667,60.3416538 Z M397.260889,84.4794047 L397.260889,56.1305224 L398.533075,56.4779448 C403.709196,57.865984 409.742726,59.1987898 409.752778,59.2009445 C417.390556,60.6560103 420.953556,63.8026872 420.953556,69.1008383 C420.953556,73.271508 418.098333,75.2121144 414.030556,75.5856072 L421.893889,88.8033621 C419.807111,88.569151 417.767778,88.3084841 415.773556,88.0236958 L408.149778,75.1965522 L402.040333,74.0309434 L402.040333,85.578096 C400.417111,85.2271684 398.828111,84.8606786 397.260889,84.4794047 Z M177.576,60.1930348 C177.577556,65.435162 173.848111,68.5421553 170.643667,70.2485506 C173.593,73.5072753 176.543111,76.6492836 179.490111,79.6948062 C177.819444,80.251933 176.119222,80.7942757 174.391,81.3249467 C171.503111,78.3525664 168.615222,75.2860348 165.730444,72.1090116 C163.234556,72.7385026 160.738667,73.3275319 158.242778,73.8605373 L158.242778,85.549306 C156.664667,85.8908963 155.078,86.2278179 153.442333,86.5382838 L153.442333,58.46174 L157.861266,57.5028987 C159.9438,57.0447095 162.389337,56.4826091 165.220098,55.7480911 L166.235222,55.4815786 C173.938333,53.4040249 177.576778,54.9135583 177.576,60.1930348 Z M56.0832222,51.8789293 C58.3434444,52.825111 60.6215556,53.7269406 62.9346667,54.5540715 L74.354,86.2278179 C72.5456667,85.8309818 70.7513333,85.3967964 68.9608889,84.941602 L66.115,77.1021436 C61.3985556,75.6182878 56.6751111,73.87999 51.9594444,71.8903627 L48.965,78.498073 L48.965,78.498073 L46.8012222,77.6609239 C46.0804167,77.3810961 45.3619444,77.0963078 44.6514444,76.794012 L56.0832222,51.8789293 Z M499.040111,53.2235034 C503.584667,52.1372618 508.529,52.8990315 510.113333,57.273566 C508.424778,57.9746431 506.602444,58.674164 505.176778,59.2048351 C504.343,56.9280852 501.495556,56.8533866 499.124111,57.4003979 C495.159,58.3177897 492.707444,60.4824917 492.719889,63.0502548 C492.733747,65.6463835 495.357707,65.8456038 498.855995,65.7365741 L501.376219,65.6400304 C506.564001,65.4723922 511.528563,65.8769062 511.55477,72.0848902 C511.581,77.2025198 506.73,81.6719838 499.202667,83.470196 C493.644948,84.7923525 489.618153,82.7492475 487.898169,79.5247818 L487.809778,79.353994 L493.335111,78.2062817 C494.874333,79.4995006 497.149333,79.5407404 499.114778,79.0816555 C503.762,78.0047512 506.184,75.3389463 506.177,73.2606145 C506.16199,70.2123343 503.358262,70.0713273 498.942502,70.28818 L497.375458,70.3743844 C493.883756,70.5487178 487.500882,70.4682996 487.472792,64.098369 C487.448111,59.0990121 491.881444,54.932233 499.040111,53.2235034 Z M189.293222,46.9060281 L189.293222,76.2127639 C188.311667,76.5821068 187.323889,76.9483372 186.328045,77.3109941 L184.828,77.8522417 L184.828,48.6738941 C185.828222,48.2848391 186.823259,47.8926716 187.812881,47.4985445 L189.293222,46.9060281 Z M369.250778,75.5179116 L369.250778,46.933262 L371.821157,47.7423892 C379.357262,50.1341452 381.919382,51.1352693 383.424222,51.7388695 C389.296444,54.2498305 391.993778,57.3116934 391.993778,62.2122303 C391.993778,66.5153011 388.311171,70.6639452 380.024185,68.0548166 L373.918222,66.0911087 L373.918222,77.2639905 L369.250778,75.5179116 Z M347.463667,52.2625375 L336.795667,33.707726 C338.629356,34.3084269 340.434671,34.9310394 342.21918,35.569986 L343.553778,36.0521715 L351.439667,49.8916363 L359.075111,42.9890223 L364.109667,45.0603512 L353.818889,54.0646403 L365.058556,73.7897293 L358.123889,70.8048992 L349.895778,56.4931217 L340.794222,64.3605921 C339.711556,63.9502687 338.624741,63.5461702 337.534469,63.1482967 L335.896556,62.5561549 L347.463667,52.2625375 L336.795667,33.707726 L347.463667,52.2625375 Z M64.2771111,72.0389817 L58.7362222,56.7732413 L58.2047025,57.9867805 C57.318938,59.9843835 55.5314306,63.9652149 53.732,67.9593509 C57.246,69.4618813 60.7631111,70.817349 64.2771111,72.0389817 Z M402.040333,62.3834145 L402.040333,69.261129 L409.417556,70.874151 L409.775626,70.9402159 C412.992354,71.5151747 416.014667,71.5279302 416.014667,68.3600776 C416.014667,65.2639778 413.796444,64.7029605 409.183444,63.822918 L402.040333,62.3834145 Z M208.709667,38.4503066 C214.29674,36.6459681 219.16786,38.1294647 220.314694,43.795628 L220.361556,44.041027 L215.887778,45.4276191 C214.979333,42.2575989 212.025333,41.996932 208.888556,43.0076969 C203.847778,44.6393936 200.335333,51.3902762 200.335333,56.4285385 C200.335333,62.7436794 202.572222,66.8023013 208.589889,64.848467 C211.957127,63.759113 214.353942,61.3767815 215.457986,58.1748369 L215.549444,57.8983884 L220.372444,56.651078 C219.076667,62.5374803 214.798111,67.2497146 208.768778,69.1988802 C200.494,71.8755786 195.65,66.9190178 195.65,57.8983884 C195.65,48.6474384 200.776333,41.0149572 208.709667,38.4503066 Z M166.152778,60.0638685 C163.514556,60.7641676 160.877889,61.4099989 158.242778,62.0021406 L158.242778,69.1747587 C160.794667,68.6713216 163.349667,68.1173072 165.903889,67.5134939 C170.582222,66.2638492 172.399889,63.4136322 172.400667,61.9375575 C172.399889,58.6344804 170.706667,58.8430139 166.152778,60.0638685 Z M373.918222,53.249181 L373.918222,61.665219 L379.315222,63.3529396 L379.972481,63.5656435 C384.425865,64.9797406 387.320111,65.2860282 387.320111,61.3998834 C387.320111,58.1310433 384.261111,56.5670421 379.315222,54.9369016 L373.918222,53.249181 Z M241.211444,28.8445384 C245.557667,37.3788491 249.831556,46.014314 253.927333,54.5245033 L252.141184,54.8389865 C250.870699,55.0679397 249.359167,55.3505505 248.999333,55.455901 L246.332333,49.7772541 L246.332333,49.7772541 C241.290778,50.6331751 236.229778,52.075013 231.262889,54.0490781 L229.229504,59.7722214 C229.09559,60.1508223 228.962352,60.5282705 228.83,60.9042274 C226.908111,61.5485025 225.006444,62.2145646 223.121111,62.9008577 C227.030222,52.2158509 231.142333,41.2203782 235.348556,30.1976717 C237.258778,29.719134 239.214111,29.2686083 241.211444,28.8445384 Z M310.748667,55.3983209 L310.748667,27.3326706 C318.372444,28.5574158 325.286111,30.2085652 331.787556,32.1390562 L331.858333,36.8092725 L331.858333,36.8092725 C326.808417,35.3206832 321.750004,34.053088 316.695676,33.0052881 L315.317333,32.724973 L315.317333,39.3809261 C319.52079,40.3789819 323.728549,41.528894 327.931323,42.831209 L329.507111,43.326722 L329.507111,47.9144587 C325.305728,46.5733429 321.0982,45.385313 316.893813,44.3498225 L315.317333,43.9686628 L315.317333,51.6968515 C321.083,53.0663251 326.855667,54.7213652 332.615111,56.6643059 L332.541222,61.3819869 L332.541222,61.3819869 C325.995117,59.1439787 319.223538,57.1706486 311.96328,55.6479071 L310.748667,55.3983209 L310.748667,27.3326706 L310.748667,55.3983209 Z M281.883,25.0465834 C282.998333,25.0559207 284.111042,25.0661334 285.203734,25.0873977 L286.289111,25.1127227 L286.289111,52.4998611 C284.863444,52.457065 283.437778,52.429053 282.011333,52.4150471 C275.816333,45.1832925 269.531111,38.2620039 263.333778,31.5593642 L263.375,53.2382875 L263.375,53.2382875 C262.242167,53.355004 261.129021,53.4883526 260.025719,53.6297984 L258.925333,53.7736272 L258.925333,26.0744667 C260.663667,25.8947233 262.447111,25.7422137 264.261667,25.6068226 C270.132333,31.8853923 276.090889,38.3592677 281.961556,45.1140408 L281.883,25.0465834 L281.883,25.0465834 Z M244.471889,45.8166741 L238.668111,33.4042631 L238.668111,33.4042631 L233.080556,48.9306704 L233.080556,48.9306704 C236.849667,47.5798714 240.667778,46.5333134 244.471889,45.8166741 Z"></path>
                </g>
            </g>
        </g>
    </g>
</svg>